<?xml version="1.0" encoding="UTF-8" standalone="no"?>
<!-- Copyright 2000-2023 JetBrains s.r.o. and contributors. Use of this source code is governed by the Apache 2.0 license. -->

<svg
   width="40"
   height="40"
   viewBox="0 0 40 40"
   fill="none"
   version="1.1"
   id="svg198"
   xmlns="http://www.w3.org/2000/svg">
  <defs
     id="defs202" />
  <path
     d="m 6.4719873,23.999397 c 0.0225,-0.86625 -0.2643745,-1.558124 -0.8606245,-2.075624 -0.59625,-0.5175 -1.4006255,-0.77625 -2.4131255,-0.77625 H 2 v -2.43 h 1.1982373 c 1.0125,0 1.8168755,-0.25875 2.4131255,-0.77625 0.59625,-0.5175 0.8831245,-1.209376 0.8606245,-2.075626 L 6.4044873,12.305 c -0.0225,-1.17 0.2193755,-2.19375 0.7256255,-3.07125 0.5175,-0.8775 1.2543745,-1.5525 2.2106245,-2.025 C 10.296987,6.73625 11.421986,6.5 12.715736,6.5 h 1.659263 v 2.26125 h -1.642387 c -1.17,0 -2.098125,0.32625 -2.7843743,0.97875 -0.6750004,0.64125 -1.0068749,1.513126 -0.9956249,2.615626 l 0.0675,3.526897 c 0.0225,1.1475 -0.2868755,2.086874 -0.9281255,2.818124 -0.64125,0.72 -1.5075,1.119376 -2.59875,1.198126 1.09125,0.2025 1.9575,0.675 2.59875,1.4175 0.64125,0.73125 0.9506255,1.62 0.9281255,2.66625 l -0.0675,3.999352 c -0.0225,0.99 0.2756245,1.7775 0.8943749,2.3625 0.6299993,0.59625 1.4793743,0.894375 2.5481243,0.894375 h 1.979887 V 33.5 h -1.996763 c -1.20375,0 -2.261249,-0.225 -3.1724987,-0.675 -0.9,-0.43875 -1.5975,-1.074375 -2.0925,-1.906875 -0.48375,-0.82125 -0.72,-1.783125 -0.70875,-2.885625 z"
     fill="#834df0"
     id="path194"
     style="stroke-width:2.25;fill:#b688ec;fill-opacity:1" />
  <path
     d="m 33.532624,23.999397 c -0.0225,-0.86625 0.264375,-1.558124 0.860625,-2.075624 0.59625,-0.5175 1.400625,-0.77625 2.413126,-0.77625 h 1.193624 v -2.43 h -1.193624 c -1.0125,0 -1.816876,-0.25875 -2.413126,-0.77625 -0.59625,-0.5175 -0.883125,-1.209376 -0.860625,-2.075626 l 0.0675,-3.560647 c 0.0225,-1.17 -0.225,-2.19375 -0.7425,-3.07125 -0.50625,-0.8775 -1.237499,-1.5525 -2.19375,-2.025 C 29.707624,6.73625 28.582736,6.5 27.288986,6.5 h -1.663987 v 2.26125 h 1.647113 c 1.17,0 2.092387,0.32625 2.767387,0.97875 0.68625,0.64125 1.02375,1.513126 1.0125,2.615626 l -0.0675,3.526897 c -0.0225,1.1475 0.286875,2.086874 0.928125,2.818124 0.641251,0.72 1.5075,1.119376 2.59875,1.198126 -1.09125,0.2025 -1.957499,0.675 -2.59875,1.4175 -0.64125,0.73125 -0.950625,1.62 -0.928125,2.66625 l 0.0675,3.999352 c 0.0225,0.99 -0.28125,1.7775 -0.91125,2.3625 -0.61875,0.59625 -1.462387,0.894375 -2.531137,0.894375 H 25.624999 V 33.5 h 2.001487 c 1.20375,0 2.255513,-0.225 3.155513,-0.675 0.91125,-0.43875 1.60875,-1.074375 2.0925,-1.906875 0.495,-0.82125 0.736875,-1.783125 0.725625,-2.885625 z"
     fill="#834df0"
     id="path196"
     style="stroke-width:2.25;fill:#b688ec;fill-opacity:1" />
  <text
     xml:space="preserve"
     style="font-style:normal;font-variant:normal;font-weight:normal;font-stretch:normal;font-size:27px;font-family:Arial;-inkscape-font-specification:'Arial, Normal';font-variant-ligatures:normal;font-variant-caps:normal;font-variant-numeric:normal;font-variant-east-asian:normal;fill:#b688ec;fill-opacity:1;stroke-width:12.1545"
     x="12.901657"
     y="30.077896"
     id="text483"><tspan
       id="tspan481"
       x="12.901657"
       y="30.077896"
       style="stroke-width:12.1545;fill:#b688ec;fill-opacity:1">b</tspan></text>
</svg>
