<?xml version="1.0" encoding="UTF-8" standalone="no"?>
<!-- Copyright 2000-2023 JetBrains s.r.o. and contributors. Use of this source code is governed by the Apache 2.0 license. -->

<svg
   width="16"
   height="16"
   viewBox="0 0 16 16"
   fill="none"
   version="1.1"
   id="svg198"
   xmlns="http://www.w3.org/2000/svg">
  <defs
     id="defs202" />
  <path
     d="m 1.98755,9.77751 c 0.01,-0.385 -0.1175,-0.6925 -0.3825,-0.9225 -0.265,-0.23 -0.6225,-0.345 -1.0725,-0.345 H 0 v -1.08 h 0.53255 c 0.45,0 0.8075,-0.115 1.0725,-0.345 0.265,-0.23 0.3925,-0.5375 0.3825,-0.9225 L 1.95755,4.58 c -0.01,-0.52 0.0975,-0.975 0.3225,-1.365 0.23,-0.39 0.5575,-0.69 0.9825,-0.9 C 3.68755,2.105 4.18755,2 4.76255,2 H 5.5 V 3.005 H 4.77005 c -0.52,0 -0.9325,0.145 -1.2375,0.435 -0.3,0.285 -0.4475,0.6725 -0.4425,1.1625 l 0.03,1.56751 c 0.01,0.51 -0.1275,0.9275 -0.4125,1.2525 -0.285,0.32 -0.67,0.4975 -1.155,0.5325 0.485,0.09 0.87,0.3 1.155,0.63 0.285,0.325 0.4225,0.72 0.4125,1.185 l -0.03,1.77749 c -0.01,0.44 0.1225,0.79 0.3975,1.05 0.28,0.265 0.6575,0.3975 1.1325,0.3975 H 5.5 V 14 H 4.61255 c -0.535,0 -1.005,-0.1 -1.41,-0.3 -0.4,-0.195 -0.71,-0.4775 -0.93,-0.8475 -0.215,-0.365 -0.32,-0.7925 -0.315,-1.2825 z"
     fill="#834df0"
     id="path194" />
  <path
     d="m 14.0145,9.77751 c -0.01,-0.385 0.1175,-0.6925 0.3825,-0.9225 0.265,-0.23 0.6225,-0.345 1.0725,-0.345 H 16 v -1.08 h -0.5305 c -0.45,0 -0.8075,-0.115 -1.0725,-0.345 -0.265,-0.23 -0.3925,-0.5375 -0.3825,-0.9225 L 14.0445,4.58 c 0.01,-0.52 -0.1,-0.975 -0.33,-1.365 -0.225,-0.39 -0.55,-0.69 -0.975,-0.9 C 12.3145,2.105 11.81455,2 11.23955,2 H 10.5 v 1.005 h 0.73205 c 0.52,0 0.92995,0.145 1.22995,0.435 0.305,0.285 0.455,0.6725 0.45,1.1625 l -0.03,1.56751 c -0.01,0.51 0.1275,0.9275 0.4125,1.2525 0.285,0.32 0.67,0.4975 1.155,0.5325 -0.485,0.09 -0.87,0.3 -1.155,0.63 -0.285,0.325 -0.4225,0.72 -0.4125,1.185 l 0.03,1.77749 c 0.01,0.44 -0.125,0.79 -0.405,1.05 -0.275,0.265 -0.64995,0.3975 -1.12495,0.3975 H 10.5 V 14 h 0.88955 c 0.535,0 1.00245,-0.1 1.40245,-0.3 0.405,-0.195 0.715,-0.4775 0.93,-0.8475 0.22,-0.365 0.3275,-0.7925 0.3225,-1.2825 z"
     fill="#834df0"
     id="path196" />
  <text
     xml:space="preserve"
     style="font-style:normal;font-variant:normal;font-weight:normal;font-stretch:normal;font-size:11px;font-family:Arial;-inkscape-font-specification:'Arial, Normal';font-variant-ligatures:normal;font-variant-caps:normal;font-variant-numeric:normal;font-variant-east-asian:normal;fill:#834df0;fill-opacity:1;stroke-width:5.402"
     x="5.2"
     y="11.906219"
     id="text483"><tspan
       id="tspan481"
       x="5.2"
       y="11.906219">b</tspan></text>
</svg>
